<?xml version="1.0" encoding="iso-8859-1"?>
<!-- Generator: Adobe Illustrator 19.0.0, SVG Export Plug-In . SVG Version: 6.00 Build 0)  -->
<svg version="1.1" id="Layer_1" xmlns="http://www.w3.org/2000/svg" xmlns:xlink="http://www.w3.org/1999/xlink" x="0px" y="0px"
	 viewBox="0 0 512 512" style="enable-background:new 0 0 512 512;" xml:space="preserve">
<g>
	<g>
		<path d="M256.001,0.001C114.842,0.001,0,114.841,0,256s114.842,255.999,256.001,255.999S512,397.159,512,256
			S397.159,0.001,256.001,0.001z M256.001,499.975c-84.762,0-159.555-43.458-203.3-109.255h406.601
			C415.555,456.516,340.763,499.975,256.001,499.975z M138.602,256.323h0.225v10.823H75.619v-28.862h63.208v6.013h-0.225
			c-3.322,0-6.013,2.693-6.013,6.013C132.589,253.631,135.281,256.323,138.602,256.323z M82.53,279.172v5.211
			c0,3.32,2.691,6.013,6.013,6.013c3.322,0,6.013-2.693,6.013-6.013v-5.211h6.814v5.211c0,3.32,2.691,6.013,6.013,6.013
			c3.321,0,6.013-2.693,6.013-6.013v-5.211h6.815v5.211c0,3.32,2.691,6.013,6.013,6.013c3.322,0,6.013-2.693,6.013-6.013v-5.211
			h6.59v99.522h-6.594v-42.983c0-15.532-8.38-29.966-21.869-37.667c-1.848-1.055-4.115-1.055-5.964,0
			c-13.488,7.702-21.868,22.135-21.868,37.667v42.983h-6.915v-99.522H82.53z M107.382,333.69c-3.322,0-6.013,2.693-6.013,6.013
			v38.993h-6.81v-42.983c0-10.032,4.837-19.43,12.823-25.289c7.987,5.858,12.824,15.256,12.824,25.289v42.982h-6.811v-38.992
			C113.395,336.382,110.704,333.69,107.382,333.69z M174.831,136.067v43.293h-13.529v-43.293H174.831z M161.302,124.041v-5.261
			c0-3.729,3.034-6.764,6.764-6.764c3.73,0,6.764,3.034,6.764,6.764v5.261H161.302z M179.04,191.385v25.254h-21.947v-25.254H179.04z
			 M185.278,228.664v15.633h-34.426v-15.633H185.278z M150.852,340.103v-67.344h34.426v67.344H150.852z M185.278,352.129v26.566
			h-34.426v-26.566H185.278z M185.277,256.323v4.41h-34.426v-4.41H185.277z M325.147,174.55v5.116
			c-2.434,0.77-4.209,3.018-4.209,5.707v7.215H191.065v-7.215c0-2.688-1.775-4.937-4.209-5.707v-5.116H325.147z M186.856,162.523
			v-7.215h138.291v7.215H186.856z M314.472,256.323h0.225v122.371h-14.206v-56.416c0-29.483-15.906-56.882-41.51-71.5
			c-1.848-1.055-4.115-1.055-5.964,0c-25.604,14.618-41.51,42.017-41.51,71.5v56.416h-14.206V256.323h0.225
			c3.322,0,6.013-2.693,6.013-6.013c0-3.32-2.689-6.013-6.01-6.013h-0.225v-4.81h117.394v4.81h-0.225
			c-3.321,0-6.013,2.693-6.013,6.013C308.459,253.631,311.15,256.323,314.472,256.323z M288.466,322.278v56.416h-64.932v-56.416
			c0-24.013,12.354-46.404,32.466-59.254C276.112,275.875,288.466,298.267,288.466,322.278z M197.304,227.462v-4.81
			c0-3.32-2.691-6.013-6.013-6.013h-0.226v-12.026h12.022v11.424c0,3.32,2.691,6.013,6.013,6.013c3.321,0,6.013-2.693,6.013-6.013
			v-11.424h11.424v11.424c0,3.32,2.691,6.013,6.013,6.013s6.013-2.693,6.013-6.013v-11.424h11.424v11.424
			c0,3.32,2.691,6.013,6.013,6.013c3.321,0,6.013-2.693,6.013-6.013v-11.424h11.424v11.424c0,3.32,2.691,6.013,6.013,6.013
			s6.013-2.693,6.013-6.013v-11.424h11.424v11.424c0,3.32,2.691,6.013,6.013,6.013c3.321,0,6.013-2.693,6.013-6.013v-11.424h12.024
			v12.026h-0.227c-3.322,0-6.013,2.693-6.013,6.013v4.81H197.304z M350.702,136.067v43.293h-13.529v-43.293H350.702z
			 M337.173,124.041v-5.261c0-3.729,3.034-6.764,6.764-6.764c3.73,0,6.764,3.034,6.764,6.764v5.261H337.173z M354.911,191.385
			v25.254h-21.947v-25.254H354.911z M361.15,228.664v15.633h-34.426v-15.633H361.15z M326.724,340.103v-67.344h34.426v67.344
			H326.724z M361.15,352.129v26.566h-34.426v-26.566H361.15z M361.148,256.323v4.41h-34.426v-4.41H361.148z M373.399,244.298h-0.225
			v-6.013h63.214v28.862h-63.214v-10.823h0.225c3.321,0,6.013-2.693,6.013-6.013C379.412,246.99,376.721,244.298,373.399,244.298z
			 M379.763,279.172v5.211c0,3.32,2.691,6.013,6.013,6.013s6.013-2.693,6.013-6.013v-5.211h6.815v5.211
			c0,3.32,2.691,6.013,6.013,6.013c3.322,0,6.013-2.693,6.013-6.013v-5.211h6.815v5.211c0,3.32,2.691,6.013,6.013,6.013
			c3.322,0,6.013-2.693,6.013-6.013v-5.211h6.918v99.522h-6.921v-42.983c0-15.532-8.38-29.966-21.869-37.667
			c-1.848-1.055-4.115-1.055-5.964,0c-13.488,7.701-21.868,22.135-21.868,37.667v42.983h-6.594v-99.522H379.763z M404.618,333.69
			c-3.321,0-6.013,2.693-6.013,6.013v38.993h-6.81v-42.983c0-10.033,4.837-19.431,12.823-25.289
			c7.987,5.858,12.824,15.256,12.824,25.289v42.982h-6.811v-38.992C410.631,336.382,407.939,333.69,404.618,333.69z
			 M448.415,378.695v-99.522h1.195c3.322,0,6.013-2.693,6.013-6.013c0-3.32-2.691-6.013-6.013-6.013h-1.195v-28.862h1.203
			c3.321,0,6.013-2.693,6.013-6.013s-2.691-6.013-6.013-6.013h-76.443v-3.608c0-3.32-2.691-6.013-6.013-6.013h-0.226v-31.267
			c0-2.688-1.775-4.937-4.209-5.707v-43.598h1.052c3.321,0,6.013-2.693,6.013-6.013s-2.691-6.013-6.013-6.013h-1.052v-5.261
			c0-8.257-5.36-15.27-12.777-17.786v-7.017c0-3.32-2.691-6.013-6.013-6.013s-6.013,2.693-6.013,6.013v7.017
			c-7.417,2.516-12.777,9.529-12.777,17.786v5.261h-1.052c-3.321,0-6.013,2.693-6.013,6.013s2.691,6.013,6.013,6.013h1.052v7.215
			H186.856v-7.215h1.052c3.322,0,6.013-2.693,6.013-6.013s-2.691-6.013-6.013-6.013h-1.052v-5.261c0-8.257-5.36-15.27-12.777-17.786
			v-7.017c0-3.32-2.691-6.013-6.013-6.013c-3.321,0-6.013,2.693-6.013,6.013v7.017c-7.417,2.516-12.777,9.529-12.777,17.786v5.261
			h-1.052c-3.322,0-6.013,2.693-6.013,6.013s2.691,6.013,6.013,6.013h1.052v43.598c-2.434,0.77-4.209,3.018-4.209,5.707v31.267
			h-0.227c-3.322,0-6.013,2.693-6.013,6.013v3.608H62.39c-3.321,0-6.013,2.693-6.013,6.013s2.691,6.013,6.013,6.013h1.203v28.862
			H62.39c-3.321,0-6.013,2.693-6.013,6.013c0,3.32,2.691,6.013,6.013,6.013h1.203v99.522H45.196
			C24.122,342.627,12.026,300.702,12.026,256c0-134.528,109.447-243.974,243.975-243.974S499.974,121.472,499.974,256
			c0,44.702-12.095,86.627-33.169,122.695H448.415z"/>
	</g>
</g>
<g>
</g>
<g>
</g>
<g>
</g>
<g>
</g>
<g>
</g>
<g>
</g>
<g>
</g>
<g>
</g>
<g>
</g>
<g>
</g>
<g>
</g>
<g>
</g>
<g>
</g>
<g>
</g>
<g>
</g>
</svg>
